<svg id="Layer_1" data-name="Layer 1" xmlns="http://www.w3.org/2000/svg" viewBox="0 0 1920 1080"><defs><style>.cls-1{fill:#fff;}</style></defs><polygon class="cls-1" points="311.61 558.75 311.62 558.75 217.52 489.99 180.39 654.41 311.61 558.75"/><path class="cls-1" d="M414.28,449.66q-22.09-39.27-63.09-61.36T255.7,366.2H110.87V713.8H255.7q54.49,0,95.49-22.83t63.09-62.6q22.1-39.76,22.09-89.35Q436.37,488.94,414.28,449.66ZM180.39,654.41h0l-8.17-208.29L217.52,490l75.61-6.65-39.32-57.75L363,499.46l-69.83-16.12,18.49,75.41L375,582.81Z"/><path class="cls-1" d="M515.38,418.41c0-1.32.71-2,2.14-2H563.4q33.5,0,53.59,19.49t20.1,52.48q0,33.34-20.1,52.78T563.4,560.62H517.52c-1.43,0-2.14-.71-2.14-2Zm31.88,111.76H563.5c12.59,0,22.74-3.86,30.55-11.47s11.68-17.66,11.68-30.15-3.86-22.74-11.57-30.35-18-11.47-30.76-11.47H547.16Z"/><path class="cls-1" d="M657.28,558.8V418.41c0-1.32.61-2,1.93-2h28c1.21,0,1.82.71,1.82,2V558.8a1.61,1.61,0,0,1-1.82,1.82H659.41A1.84,1.84,0,0,1,657.28,558.8Z"/><path class="cls-1" d="M842.83,558.29c.72,1.52.21,2.33-1.42,2.33h-28a2,2,0,0,1-2.14-1.42l-11.67-31.26H746.2L734.32,559.2a2.23,2.23,0,0,1-2.23,1.42H704.38c-1.83,0-2.34-.81-1.63-2.33l53-139.88a2.59,2.59,0,0,1,2.74-1.83h28.93a2.55,2.55,0,0,1,2.64,1.83Zm-53.39-57.35-16.65-44.06-16.64,44.06Z"/><path class="cls-1" d="M888.3,558.59a1.82,1.82,0,0,1-2,2H858.66c-1.32,0-2-.81-2.13-2.33V419.42c0-2.13,1-3.14,3.14-3h27.21a3.12,3.12,0,0,1,2.74,1.62l43,88.62L974,417.8a2.5,2.5,0,0,1,2.54-1.42h30.56a1.82,1.82,0,0,1,2,2V558.59a1.82,1.82,0,0,1-2,2H979.35a1.82,1.82,0,0,1-2-2V476.47l-30.15,60.91c-.3.81-1.11,1.32-2.53,1.62H920.38a2.88,2.88,0,0,1-2.54-1.42L888.3,477.89Z"/><path class="cls-1" d="M1162.86,558.29c.72,1.52.21,2.33-1.42,2.33h-28a2,2,0,0,1-2.13-1.42l-11.68-31.26h-53.39l-11.88,31.26a2.23,2.23,0,0,1-2.23,1.42h-27.71c-1.83,0-2.34-.81-1.63-2.33l53-139.88a2.59,2.59,0,0,1,2.74-1.83h28.93a2.55,2.55,0,0,1,2.64,1.83Zm-53.39-57.35-16.65-44.06-16.64,44.06Z"/><path class="cls-1" d="M1213,417.8,1267.81,507V418.41a1.85,1.85,0,0,1,2.13-2h27.82c1.22,0,1.82.71,1.93,2V558.59c0,1.32-.71,2-2.14,2h-31.36a2.84,2.84,0,0,1-2.34-1.21l-55.52-89.84v89a1.82,1.82,0,0,1-2,2h-27.61a2,2,0,0,1-2.14-2V418.41c0-1.32.72-2,2.14-2h31.57A3.13,3.13,0,0,1,1213,417.8Z"/><path class="cls-1" d="M1424.12,418.41V444.8a1.87,1.87,0,0,1-1.93,2.13h-35.52V558.8c0,1.22-.71,1.82-2,1.82h-27.92a1.61,1.61,0,0,1-1.83-1.82V446.93h-35.83c-1.22,0-1.83-.61-1.83-1.92v-26.6a1.82,1.82,0,0,1,2-2h102.93C1423.41,416.38,1424,417.09,1424.12,418.41Z"/><path class="cls-1" d="M1517.81,472.11a1.82,1.82,0,0,1,2,2v25.78c0,1.32-.61,2-1.83,2h-44.56v28.12h56.13a1.94,1.94,0,0,1,2.13,2v26.7c0,1.22-.61,1.82-1.93,1.82h-86a2,2,0,0,1-2.14-2V418.41c0-1.32.71-2,2.14-2h83.94a1.82,1.82,0,0,1,2,2V444.8a1.94,1.94,0,0,1-2,2.13h-54.3v25.18Z"/><path class="cls-1" d="M1671.38,540.63c.91,1.11,1,2.13.3,3q-20.55,19-52,19.09-33,0-53.29-20.61t-20.2-53.6q0-32.88,20.71-53.49t53.59-20.61q30.15,0,50.66,19.39a1.74,1.74,0,0,1,0,2.64l-15.33,21.82a2.51,2.51,0,0,1-1.22.71,2.45,2.45,0,0,1-1.83-.71,49,49,0,0,0-33.19-12.48c-12.59,0-22.74,4-30.35,11.77s-11.37,18.17-11.37,31.06c0,12.69,3.86,23,11.47,30.76s17.76,11.68,30.45,11.68q18.42,0,33.2-12.49a4.86,4.86,0,0,1,1.72-.61,1.73,1.73,0,0,1,1.22.81Z"/><path class="cls-1" d="M1722.73,475h53.5V418.41a1.82,1.82,0,0,1,2-2h27.91a1.62,1.62,0,0,1,1.83,1.83V558.59a1.82,1.82,0,0,1-2,2h-27.71a1.82,1.82,0,0,1-2-2V502h-53.5v56.64c0,1.32-.61,2-1.83,2h-27.81a1.94,1.94,0,0,1-2.13-2V418.41a1.85,1.85,0,0,1,2.13-2h27.81a1.62,1.62,0,0,1,1.83,1.83Z"/><path class="cls-1" d="M517.84,676.77V608.64c0-.64.29-1,.88-1h8.48a.94.94,0,0,1,1,1v68.13c0,.59-.3.88-.94.88h-8.57A.78.78,0,0,1,517.84,676.77Z"/><path class="cls-1" d="M608.45,607.65a1.51,1.51,0,0,1,1.18.69l33.9,52.47V608.64c0-.64.29-1,.88-1h8.48a.94.94,0,0,1,1,1v68c0,.64-.34,1-1,1H643a1.69,1.69,0,0,1-1.18-.59l-34-52.66v52.27c0,.64-.34,1-1,1H598.3c-.59,0-.88-.34-.88-1v-68a.88.88,0,0,1,1-1h10.05Z"/><path class="cls-1" d="M724,677.65c-.59,0-.88-.34-.88-1v-68a.88.88,0,0,1,1-1h19.71q16.24,0,26,9.46c6.5,6.31,9.75,14.78,9.75,25.47s-3.25,19.31-9.8,25.62-15.22,9.45-26,9.45H724Zm9.61-9.75H744q11.59,0,18.47-6.8c4.58-4.53,6.9-10.69,6.9-18.42s-2.32-13.89-7-18.47-10.79-6.9-18.52-6.9h-10.3Z"/><path class="cls-1" d="M845,676.77V608.64c0-.64.29-1,.88-1h8.48a.94.94,0,0,1,1,1v68.13c0,.59-.3.88-.94.88h-8.57A.78.78,0,0,1,845,676.77Z"/><path class="cls-1" d="M982.42,676.52c.35.74.1,1.13-.74,1.13h-8.47A1.25,1.25,0,0,1,972,677l-7.54-19.16H935.13L927.44,677c0,.45-.39.69-1,.69H918c-.74,0-1-.39-.84-1.13l26.94-67.88a1.27,1.27,0,0,1,1.34-.89h8.76a1.23,1.23,0,0,1,1.28.89Zm-21.48-27.83-11.08-28.13-11.23,28.13Z"/><path class="cls-1" d="M1170.3,628.64q-.08,9.6-6.06,15.27t-16.35,5.67h-14.34v27.14c0,.64-.34,1-1,1h-8.38a.88.88,0,0,1-1-1v-68a.88.88,0,0,1,1-1h23.75q10.41,0,16.4,5.62t6.06,15.22Zm-23.2,11.18c4,0,7.09-.93,9.36-2.81s3.4-4.63,3.4-8.22c0-3.8-1.13-6.6-3.4-8.48s-5.37-2.8-9.26-2.8h-13.6l-.1,22.31h13.6Z"/><path class="cls-1" d="M1289.34,607.75c.89,0,1.14.4.79,1.18l-26.4,67.84a1.34,1.34,0,0,1-1.43.88h-9.71a1.23,1.23,0,0,1-1.28-.88l-26.45-67.84c-.25-.83.05-1.23.89-1.18h9.16a1.16,1.16,0,0,1,1,.69l21.63,56.6,21.58-56.6a1,1,0,0,1,1-.69h9.16Z"/><path class="cls-1" d="M1397.4,608.64v7.88c0,.59-.35.89-1,.89h-19.8l.15,59.36c0,.59-.35.88-1,.88h-8.47c-.64,0-1-.29-1-.88V617.41h-19.8a.79.79,0,0,1-.89-.89v-7.88a.89.89,0,0,1,1-1h50C1397.1,607.65,1397.4,608,1397.4,608.64Z"/><path class="cls-1" d="M1540,607.65h8.47a1,1,0,0,1,1,1v59.65H1573a.88.88,0,0,1,1,1v7.49a.78.78,0,0,1-.89.88H1540a.78.78,0,0,1-.89-.88V608.64C1539.07,608,1539.37,607.65,1540,607.65Z"/><path class="cls-1" d="M1683.58,608.64v7.88c0,.59-.34.89-1,.89h-19.81l.15,59.36c0,.59-.34.88-1,.88h-8.48c-.64,0-1-.29-1-.88V617.41h-19.81a.78.78,0,0,1-.88-.89v-7.88a.88.88,0,0,1,1-1h50C1683.29,607.65,1683.58,608,1683.58,608.64Z"/><path class="cls-1" d="M1747.4,677.65c-.59,0-.89-.34-.89-1v-68a.89.89,0,0,1,1-1h19.7q16.26,0,26,9.46c6.51,6.31,9.76,14.78,9.76,25.47s-3.25,19.31-9.81,25.62-15.22,9.45-26,9.45H1747.4Zm9.61-9.75h10.29q11.61,0,18.47-6.8c4.59-4.53,6.9-10.69,6.9-18.42s-2.31-13.89-6.94-18.47-10.79-6.9-18.53-6.9h-10.29Z"/><rect class="cls-1" x="514.25" y="581.75" width="1294.87" height="4.04"/></svg>