<svg id="Layer_1" data-name="Layer 1" xmlns="http://www.w3.org/2000/svg" viewBox="0 0 1080 1080"><defs><style>.cls-1{fill:#ffb703;}.cls-2{fill:#023047;}</style></defs><rect class="cls-1" width="1080" height="1080"/><polygon class="cls-2" points="563.84 460 563.84 460 514.04 423.61 494.39 510.63 563.84 460"/><path class="cls-2" d="M618.18,402.27a82.09,82.09,0,0,0-33.39-32.48q-21.7-11.7-50.54-11.7H457.59v184h76.66q28.85,0,50.54-12.08a84.27,84.27,0,0,0,33.39-33.13q11.69-21,11.69-47.29Q629.87,423.05,618.18,402.27ZM494.39,510.63h0l-4.33-110.24,24,23.22,40-3.52-20.82-30.57L591,428.62l-37-8.53L563.84,460l33.56,12.74Z"/><path class="cls-2" d="M229.47,595.83c0-.65.35-1,1-1h22.31q16.29,0,26.06,9.48t9.77,25.51q0,16.21-9.77,25.67T252.82,665H230.51a.91.91,0,0,1-1-1ZM245,650.17h7.9c6.12,0,11.05-1.88,14.85-5.58s5.68-8.59,5.68-14.66-1.88-11-5.63-14.76-8.73-5.57-14.95-5.57h-7.9Z"/><path class="cls-2" d="M298.47,664.09V595.83c0-.65.29-1,.94-1H313c.59,0,.89.34.89,1v68.26a.79.79,0,0,1-.89.89H299.5A.9.9,0,0,1,298.47,664.09Z"/><path class="cls-2" d="M388.69,663.84c.35.74.1,1.14-.69,1.14H374.38a1,1,0,0,1-1-.69l-5.68-15.21h-26l-5.77,15.21a1.11,1.11,0,0,1-1.09.69H321.37c-.89,0-1.14-.4-.79-1.14l25.76-68a1.25,1.25,0,0,1,1.33-.89h14.07a1.24,1.24,0,0,1,1.29.89Zm-26-27.89-8.1-21.42L346.54,636Z"/><path class="cls-2" d="M410.8,664a.89.89,0,0,1-1,1H396.39c-.65,0-1-.4-1-1.14V596.32c0-1,.49-1.53,1.53-1.48h13.23a1.52,1.52,0,0,1,1.33.79l20.93,43.09,20.09-43.19a1.2,1.2,0,0,1,1.23-.69h14.86a.88.88,0,0,1,1,1V664a.88.88,0,0,1-1,1H455.07a.89.89,0,0,1-1-1V624.06l-14.65,29.61c-.15.4-.55.65-1.24.79h-11.8a1.4,1.4,0,0,1-1.23-.69l-14.36-29Z"/><path class="cls-2" d="M544.3,663.84c.35.74.1,1.14-.69,1.14H530a1,1,0,0,1-1-.69l-5.67-15.21h-26l-5.77,15.21a1.1,1.1,0,0,1-1.09.69H477c-.89,0-1.14-.4-.79-1.14l25.76-68a1.26,1.26,0,0,1,1.34-.89h14.06a1.23,1.23,0,0,1,1.29.89Zm-26-27.89-8.09-21.42L502.15,636Z"/><path class="cls-2" d="M568.68,595.53l26.65,43.39V595.83c0-.65.35-1,1-1h13.52c.6,0,.89.34.94,1V664c0,.64-.34,1-1,1H594.54a1.37,1.37,0,0,1-1.13-.6l-27-43.68V664a.89.89,0,0,1-1,1H552a1,1,0,0,1-1-1V595.83c0-.65.34-1,1-1h15.35A1.53,1.53,0,0,1,568.68,595.53Z"/><path class="cls-2" d="M671.34,595.83v12.83a.92.92,0,0,1-.94,1H653.12v54.39c0,.59-.34.89-1,.89H638.56a.79.79,0,0,1-.89-.89V609.7H620.25c-.59,0-.89-.3-.89-.94V595.83a.89.89,0,0,1,1-1h50C671,594.84,671.29,595.18,671.34,595.83Z"/><path class="cls-2" d="M716.89,621.94a.88.88,0,0,1,1,1v12.54c0,.64-.3,1-.89,1H695.32v13.67h27.29a1,1,0,0,1,1,1v13c0,.59-.3.89-.94.89h-41.8a1,1,0,0,1-1-1V595.83c0-.65.35-1,1-1h40.82a.88.88,0,0,1,1,1v12.83a1,1,0,0,1-1,1H695.32v12.24Z"/><path class="cls-2" d="M791.56,655.25a1.08,1.08,0,0,1,.15,1.48q-10,9.25-25.27,9.28-16.07,0-25.91-10t-9.83-26.06q0-16,10.07-26t26.06-10c9.78,0,18,3.16,24.63,9.43a.83.83,0,0,1,0,1.28L784,615.22a1.23,1.23,0,0,1-.59.35,1.18,1.18,0,0,1-.89-.35,23.84,23.84,0,0,0-16.14-6.07c-6.12,0-11.06,1.93-14.76,5.73s-5.53,8.83-5.53,15.1,1.88,11.16,5.58,15,8.64,5.67,14.81,5.67a24.35,24.35,0,0,0,16.14-6.07,2.26,2.26,0,0,1,.84-.29.82.82,0,0,1,.59.39Z"/><path class="cls-2" d="M816.53,623.32h26V595.83a.89.89,0,0,1,1-1H857.1a.78.78,0,0,1,.89.89V664a.88.88,0,0,1-1,1H843.53a.89.89,0,0,1-1-1V636.45h-26V664c0,.64-.29,1-.89,1H802.12a1,1,0,0,1-1-1V595.83c0-.65.35-1,1-1h13.52a.78.78,0,0,1,.89.89Z"/><path class="cls-2" d="M230.66,721.45V688.32c0-.31.15-.48.44-.48h4.12a.46.46,0,0,1,.5.48v33.13c0,.29-.15.43-.46.43H231.1A.38.38,0,0,1,230.66,721.45Z"/><path class="cls-2" d="M274.73,687.84a.74.74,0,0,1,.57.34l16.48,25.51V688.32c0-.31.14-.48.43-.48h4.12a.46.46,0,0,1,.5.48V721.4a.43.43,0,0,1-.5.48h-4.81a.79.79,0,0,1-.58-.29L274.41,696V721.4a.43.43,0,0,1-.5.48h-4.12c-.29,0-.43-.17-.43-.48V688.32a.43.43,0,0,1,.48-.48h4.89Z"/><path class="cls-2" d="M330.93,721.88c-.29,0-.43-.17-.43-.48V688.32a.43.43,0,0,1,.48-.48h9.58q7.9,0,12.65,4.6c3.16,3.07,4.74,7.19,4.74,12.39s-1.58,9.39-4.77,12.45-7.4,4.6-12.64,4.6h-9.61Zm4.67-4.74h5a12.19,12.19,0,0,0,9-3.31,13.65,13.65,0,0,0,0-17.94,12.25,12.25,0,0,0-9-3.35h-5Z"/><path class="cls-2" d="M389.72,721.45V688.32c0-.31.15-.48.43-.48h4.12a.46.46,0,0,1,.51.48v33.13c0,.29-.15.43-.46.43h-4.17A.38.38,0,0,1,389.72,721.45Z"/><path class="cls-2" d="M456.56,721.33c.17.36.05.55-.36.55h-4.12a.62.62,0,0,1-.57-.33l-3.67-9.32H433.57l-3.74,9.32c0,.21-.19.33-.48.33h-4.12c-.36,0-.5-.19-.4-.55l13.1-33a.61.61,0,0,1,.64-.43h4.27a.6.6,0,0,1,.62.43ZM446.12,707.8l-5.39-13.68-5.46,13.68Z"/><path class="cls-2" d="M547.92,698.05a9.84,9.84,0,0,1-2.95,7.42,11.05,11.05,0,0,1-8,2.76h-7v13.2a.44.44,0,0,1-.5.48h-4.07a.43.43,0,0,1-.48-.48V688.35a.43.43,0,0,1,.48-.48H537a11.2,11.2,0,0,1,8,2.73,9.75,9.75,0,0,1,2.94,7.4Zm-11.28,5.44a6.92,6.92,0,0,0,4.55-1.37,4.9,4.9,0,0,0,1.65-4,5,5,0,0,0-1.65-4.12,6.87,6.87,0,0,0-4.5-1.37h-6.62l0,10.86h6.61Z"/><path class="cls-2" d="M605.8,687.89c.43,0,.55.19.38.58l-12.83,33a.66.66,0,0,1-.7.43h-4.72a.6.6,0,0,1-.62-.43l-12.86-33c-.12-.41,0-.6.43-.58h4.45a.57.57,0,0,1,.51.34l10.51,27.52,10.49-27.52a.49.49,0,0,1,.51-.34h4.45Z"/><path class="cls-2" d="M658.34,688.32v3.84c0,.28-.17.43-.48.43h-9.63l.08,28.86c0,.29-.17.43-.51.43h-4.12c-.31,0-.48-.14-.48-.43V692.59h-9.63a.39.39,0,0,1-.43-.43v-3.84a.43.43,0,0,1,.48-.48h24.29C658.2,687.84,658.34,688,658.34,688.32Z"/><path class="cls-2" d="M727.66,687.84h4.12a.46.46,0,0,1,.5.48v29h11.43a.43.43,0,0,1,.48.48v3.64a.38.38,0,0,1-.43.43h-16.1a.38.38,0,0,1-.43-.43V688.32C727.23,688,727.37,687.84,727.66,687.84Z"/><path class="cls-2" d="M797.5,688.32v3.84c0,.28-.17.43-.48.43h-9.63l.07,28.86c0,.29-.17.43-.5.43h-4.12c-.31,0-.48-.14-.48-.43V692.59h-9.63a.38.38,0,0,1-.43-.43v-3.84a.43.43,0,0,1,.48-.48h24.28C797.35,687.84,797.5,688,797.5,688.32Z"/><path class="cls-2" d="M828.53,721.88c-.29,0-.43-.17-.43-.48V688.32a.43.43,0,0,1,.47-.48h9.59q7.9,0,12.64,4.6c3.16,3.07,4.75,7.19,4.75,12.39s-1.59,9.39-4.77,12.45-7.4,4.6-12.65,4.6h-9.6Zm4.67-4.74h5a12.21,12.21,0,0,0,9-3.31,13.64,13.64,0,0,0,0-17.94,12.21,12.21,0,0,0-9-3.35h-5Z"/><rect class="cls-2" x="228.92" y="675.25" width="629.62" height="1.96"/></svg>