<svg id="Layer_1" data-name="Layer 1" xmlns="http://www.w3.org/2000/svg" viewBox="0 0 1080 1080"><defs><style>.cls-1{fill:#00b4d8;}.cls-2{fill:#eaf4f6;}</style></defs><rect class="cls-1" width="1080" height="1080"/><polygon class="cls-2" points="560.11 460 560.11 460 510.31 423.61 490.65 510.63 560.11 460"/><path class="cls-2" d="M614.44,402.27a82,82,0,0,0-33.39-32.48q-21.69-11.7-50.53-11.7H453.86v184h76.66q28.83,0,50.53-12.08a84.14,84.14,0,0,0,33.39-33.13q11.7-21,11.7-47.29Q626.14,423.05,614.44,402.27ZM490.65,510.63h0l-4.32-110.24,24,23.22,40-3.52-20.82-30.57,57.77,39.1-36.95-8.53L560.11,460l33.56,12.74Z"/><path class="cls-2" d="M225.74,595.83c0-.65.35-1,1-1h22.31q16.29,0,26.06,9.48t9.77,25.51q0,16.21-9.77,25.67T249.09,665H226.78a.91.91,0,0,1-1-1Zm15.5,54.34h7.9c6.12,0,11.05-1.88,14.85-5.58s5.68-8.59,5.68-14.66-1.88-11-5.63-14.76-8.73-5.57-15-5.57h-7.9Z"/><path class="cls-2" d="M294.74,664.09V595.83c0-.65.29-1,.93-1H309.3c.59,0,.88.34.88,1v68.26a.78.78,0,0,1-.88.89H295.77A.9.9,0,0,1,294.74,664.09Z"/><path class="cls-2" d="M385,663.84c.34.74.1,1.14-.69,1.14H370.65a1,1,0,0,1-1-.69l-5.68-15.21H338l-5.77,15.21a1.11,1.11,0,0,1-1.09.69H317.64c-.89,0-1.14-.4-.79-1.14l25.76-68a1.25,1.25,0,0,1,1.33-.89H358a1.22,1.22,0,0,1,1.28.89ZM359,636l-8.1-21.42L342.81,636Z"/><path class="cls-2" d="M407.07,664a.89.89,0,0,1-1,1H392.65c-.64,0-1-.4-1-1.14V596.32c0-1,.49-1.53,1.53-1.48h13.22a1.53,1.53,0,0,1,1.34.79l20.93,43.09,20.08-43.19a1.23,1.23,0,0,1,1.24-.69h14.85a.88.88,0,0,1,1,1V664a.89.89,0,0,1-1,1H451.34a.89.89,0,0,1-1-1V624.06l-14.66,29.61c-.14.4-.54.65-1.23.79h-11.8a1.38,1.38,0,0,1-1.23-.69l-14.36-29Z"/><path class="cls-2" d="M540.57,663.84c.35.74.1,1.14-.69,1.14H526.26a1,1,0,0,1-1-.69l-5.68-15.21h-26l-5.77,15.21a1.11,1.11,0,0,1-1.09.69H473.25c-.89,0-1.14-.4-.79-1.14l25.76-68a1.25,1.25,0,0,1,1.33-.89h14.07a1.22,1.22,0,0,1,1.28.89Zm-26-27.89-8.1-21.42L498.42,636Z"/><path class="cls-2" d="M565,595.53l26.65,43.39V595.83c0-.65.35-1,1-1h13.52c.59,0,.89.34.94,1V664a.91.91,0,0,1-1,1H590.81a1.37,1.37,0,0,1-1.13-.6l-27-43.68V664a.89.89,0,0,1-1,1H548.26a.94.94,0,0,1-1-1V595.83a.9.9,0,0,1,1-1h15.35A1.53,1.53,0,0,1,565,595.53Z"/><path class="cls-2" d="M667.6,595.83v12.83a.91.91,0,0,1-.93,1H649.39v54.39c0,.59-.34.89-1,.89H634.83a.79.79,0,0,1-.89-.89V609.7H616.52c-.59,0-.89-.3-.89-.94V595.83a.89.89,0,0,1,1-1h50C667.26,594.84,667.56,595.18,667.6,595.83Z"/><path class="cls-2" d="M713.16,621.94a.88.88,0,0,1,1,1v12.54c0,.64-.29,1-.88,1H691.59v13.67h27.29a1,1,0,0,1,1,1v13c0,.59-.3.89-.94.89h-41.8a1,1,0,0,1-1-1V595.83c0-.65.34-1,1-1H718a.88.88,0,0,1,1,1v12.83a1,1,0,0,1-1,1h-26.4v12.24Z"/><path class="cls-2" d="M787.83,655.25a1.09,1.09,0,0,1,.15,1.48Q778,666,762.71,666q-16.07,0-25.92-10T727,629.93q0-16,10.07-26t26.06-10c9.78,0,18,3.16,24.63,9.43a.83.83,0,0,1,0,1.28l-7.45,10.61a1.28,1.28,0,0,1-.59.35,1.18,1.18,0,0,1-.89-.35,23.84,23.84,0,0,0-16.14-6.07c-6.12,0-11.06,1.93-14.76,5.73s-5.53,8.83-5.53,15.1,1.88,11.16,5.58,15,8.64,5.67,14.81,5.67a24.35,24.35,0,0,0,16.14-6.07,2.26,2.26,0,0,1,.84-.29.84.84,0,0,1,.59.39Z"/><path class="cls-2" d="M812.8,623.32h26V595.83a.89.89,0,0,1,1-1h13.57a.79.79,0,0,1,.89.89V664a.89.89,0,0,1-1,1H839.8a.89.89,0,0,1-1-1V636.45h-26V664c0,.64-.3,1-.89,1H798.39a1,1,0,0,1-1-1V595.83c0-.65.35-1,1-1h13.52a.79.79,0,0,1,.89.89Z"/><path class="cls-2" d="M226.93,721.45V688.32c0-.31.15-.48.43-.48h4.12a.47.47,0,0,1,.51.48v33.13c0,.29-.15.43-.46.43h-4.17A.38.38,0,0,1,226.93,721.45Z"/><path class="cls-2" d="M271,687.84a.74.74,0,0,1,.58.34l16.48,25.51V688.32c0-.31.14-.48.43-.48h4.12a.46.46,0,0,1,.5.48V721.4a.44.44,0,0,1-.5.48h-4.82a.79.79,0,0,1-.57-.29L270.68,696V721.4a.44.44,0,0,1-.5.48h-4.12c-.29,0-.43-.17-.43-.48V688.32a.43.43,0,0,1,.48-.48H271Z"/><path class="cls-2" d="M327.2,721.88c-.29,0-.43-.17-.43-.48V688.32a.43.43,0,0,1,.48-.48h9.58q7.91,0,12.64,4.6c3.17,3.07,4.75,7.19,4.75,12.39s-1.58,9.39-4.77,12.45-7.4,4.6-12.65,4.6h-9.6Zm4.67-4.74h5a12.19,12.19,0,0,0,9-3.31,13.64,13.64,0,0,0,0-17.94,12.21,12.21,0,0,0-9-3.35h-5Z"/><path class="cls-2" d="M386,721.45V688.32c0-.31.14-.48.43-.48h4.12a.46.46,0,0,1,.5.48v33.13c0,.29-.14.43-.45.43h-4.17A.38.38,0,0,1,386,721.45Z"/><path class="cls-2" d="M452.83,721.33c.17.36.05.55-.36.55h-4.12a.62.62,0,0,1-.57-.33l-3.67-9.32H429.84l-3.74,9.32c0,.21-.19.33-.48.33H421.5c-.36,0-.5-.19-.41-.55l13.11-33a.61.61,0,0,1,.64-.43h4.27a.61.61,0,0,1,.62.43ZM442.39,707.8,437,694.12l-5.46,13.68Z"/><path class="cls-2" d="M544.19,698.05a9.87,9.87,0,0,1-3,7.42,11.05,11.05,0,0,1-8,2.76h-7v13.2a.44.44,0,0,1-.5.48h-4.08a.43.43,0,0,1-.48-.48V688.35a.43.43,0,0,1,.48-.48h11.55a11.17,11.17,0,0,1,8,2.73,9.73,9.73,0,0,1,3,7.4Zm-11.28,5.44a6.94,6.94,0,0,0,4.55-1.37,4.9,4.9,0,0,0,1.65-4,5,5,0,0,0-1.65-4.12,6.9,6.9,0,0,0-4.51-1.37h-6.61l-.05,10.86h6.62Z"/><path class="cls-2" d="M602.07,687.89c.43,0,.55.19.38.58l-12.84,33a.64.64,0,0,1-.69.43H584.2a.59.59,0,0,1-.62-.43l-12.86-33c-.12-.41,0-.6.43-.58h4.45a.56.56,0,0,1,.5.34l10.52,27.52,10.49-27.52a.48.48,0,0,1,.5-.34h4.46Z"/><path class="cls-2" d="M654.61,688.32v3.84c0,.28-.17.43-.48.43H644.5l.07,28.86c0,.29-.16.43-.5.43H640c-.31,0-.48-.14-.48-.43V692.59h-9.63a.39.39,0,0,1-.43-.43v-3.84a.43.43,0,0,1,.48-.48h24.29C654.47,687.84,654.61,688,654.61,688.32Z"/><path class="cls-2" d="M723.93,687.84h4.12a.46.46,0,0,1,.5.48v29H740a.43.43,0,0,1,.48.48v3.64a.38.38,0,0,1-.43.43h-16.1a.38.38,0,0,1-.43-.43V688.32C723.5,688,723.64,687.84,723.93,687.84Z"/><path class="cls-2" d="M793.76,688.32v3.84c0,.28-.16.43-.48.43h-9.62l.07,28.86c0,.29-.17.43-.51.43H779.1c-.31,0-.47-.14-.47-.43V692.59H769a.38.38,0,0,1-.43-.43v-3.84a.43.43,0,0,1,.47-.48h24.29C793.62,687.84,793.76,688,793.76,688.32Z"/><path class="cls-2" d="M824.79,721.88c-.28,0-.43-.17-.43-.48V688.32a.43.43,0,0,1,.48-.48h9.58q7.91,0,12.65,4.6c3.16,3.07,4.74,7.19,4.74,12.39s-1.58,9.39-4.76,12.45-7.4,4.6-12.65,4.6h-9.61Zm4.68-4.74h5a12.17,12.17,0,0,0,9-3.31,13.62,13.62,0,0,0,0-17.94,12.24,12.24,0,0,0-9-3.35h-5Z"/><rect class="cls-2" x="225.19" y="675.25" width="629.62" height="1.96"/></svg>