<svg id="Layer_1" data-name="Layer 1" xmlns="http://www.w3.org/2000/svg" viewBox="0 0 1080 1080"><defs><style>.cls-1{fill:#00b4d8;}.cls-2{fill:#eaf4f6;}</style></defs><rect class="cls-1" width="1080" height="1080"/><polygon class="cls-2" points="284.08 547.4 284.08 547.4 246.94 520.26 232.29 585.16 284.08 547.4"/><path class="cls-2" d="M324.6,504.34a61.24,61.24,0,0,0-24.9-24.22q-16.17-8.72-37.69-8.72H204.85V608.6H262q21.51,0,37.69-9a62.78,62.78,0,0,0,24.9-24.71q8.73-15.69,8.72-35.27Q333.32,519.86,324.6,504.34Zm-92.31,80.82h0l-3.23-82.22,17.88,17.32,29.85-2.62-15.53-22.8L304.35,524l-27.56-6.36,7.29,29.76,25,9.5Z"/><path class="cls-2" d="M364.51,492a.73.73,0,0,1,.84-.8h18.11q13.23,0,21.16,7.69t7.93,20.71c0,8.78-2.65,15.71-7.93,20.84s-12.34,7.69-21.16,7.69H365.35a.73.73,0,0,1-.84-.8Zm12.58,44.11h6.41c5,0,9-1.52,12.06-4.53s4.61-7,4.61-11.9-1.52-9-4.57-12-7.09-4.52-12.14-4.52h-6.41Z"/><path class="cls-2" d="M420.52,547.42V492c0-.52.24-.8.76-.8h11.06c.48,0,.72.28.72.8v55.41a.64.64,0,0,1-.72.72h-11A.73.73,0,0,1,420.52,547.42Z"/><path class="cls-2" d="M493.75,547.22c.29.6.08.92-.56.92H482.14a.81.81,0,0,1-.85-.56l-4.6-12.34H455.61l-4.69,12.34a.88.88,0,0,1-.88.56H439.11c-.73,0-.93-.32-.65-.92L459.38,492a1,1,0,0,1,1.08-.72h11.42a1,1,0,0,1,1,.72Zm-21.07-22.64-6.57-17.39-6.57,17.39Z"/><path class="cls-2" d="M511.7,547.34a.72.72,0,0,1-.8.8H500c-.52,0-.8-.32-.84-.92V492.41c0-.84.4-1.24,1.24-1.2h10.74a1.23,1.23,0,0,1,1.08.64l17,35,16.3-35.06a1,1,0,0,1,1-.56h12.06a.72.72,0,0,1,.8.8v55.33a.72.72,0,0,1-.8.8H547.64a.72.72,0,0,1-.8-.8V514.93l-11.9,24c-.12.32-.44.52-1,.64h-9.58a1.14,1.14,0,0,1-1-.56L511.7,515.49Z"/><path class="cls-2" d="M620.07,547.22c.28.6.08.92-.56.92H608.45a.8.8,0,0,1-.84-.56L603,535.24H581.93l-4.69,12.34a.88.88,0,0,1-.88.56H565.42c-.72,0-.92-.32-.64-.92L585.69,492a1,1,0,0,1,1.09-.72h11.41a1,1,0,0,1,1,.72ZM599,524.58l-6.57-17.39-6.58,17.39Z"/><path class="cls-2" d="M639.86,491.77,661.49,527V492c0-.52.28-.8.85-.8h11c.48,0,.72.28.76.8v55.33a.73.73,0,0,1-.84.8H660.85a1.12,1.12,0,0,1-.92-.48L638,512.2v35.14a.72.72,0,0,1-.8.8H626.32a.77.77,0,0,1-.85-.8V492c0-.52.28-.8.85-.8h12.46A1.23,1.23,0,0,1,639.86,491.77Z"/><path class="cls-2" d="M723.19,492v10.42a.74.74,0,0,1-.76.84h-14v44.15c0,.48-.29.72-.81.72h-11a.64.64,0,0,1-.73-.72V503.27H681.72c-.48,0-.72-.24-.72-.76V492a.72.72,0,0,1,.8-.8h40.63C722.91,491.21,723.15,491.49,723.19,492Z"/><path class="cls-2" d="M760.17,513.2a.72.72,0,0,1,.8.8v10.18c0,.52-.24.8-.72.8H742.66v11.1h22.15a.77.77,0,0,1,.85.8v10.54c0,.48-.25.72-.77.72H731a.77.77,0,0,1-.84-.8V492a.73.73,0,0,1,.84-.8h33.13a.72.72,0,0,1,.8.8v10.42a.77.77,0,0,1-.8.84H742.66v9.93Z"/><path class="cls-2" d="M820.78,540.25a.88.88,0,0,1,.12,1.2Q812.79,549,800.39,549q-13,0-21-8.13c-5.33-5.41-8-12.46-8-21.16s2.72-15.7,8.17-21.11,12.5-8.13,21.16-8.13a28.06,28.06,0,0,1,20,7.65.68.68,0,0,1,0,1l-6.05,8.61a1,1,0,0,1-.48.28,1,1,0,0,1-.72-.28,19.34,19.34,0,0,0-13.1-4.92c-5,0-9,1.56-12,4.64s-4.49,7.18-4.49,12.26,1.52,9.06,4.53,12.14,7,4.61,12,4.61a19.75,19.75,0,0,0,13.1-4.93,1.94,1.94,0,0,1,.68-.24.69.69,0,0,1,.48.32Z"/><path class="cls-2" d="M841.05,514.32h21.11V492a.73.73,0,0,1,.81-.8h11a.64.64,0,0,1,.73.72v55.41a.73.73,0,0,1-.81.8H863a.73.73,0,0,1-.81-.8V525H841.05v22.36c0,.52-.24.8-.72.8h-11a.77.77,0,0,1-.84-.8V492a.73.73,0,0,1,.84-.8h11a.64.64,0,0,1,.72.72Z"/><path class="cls-2" d="M365.48,594V567.09c0-.25.11-.39.35-.39h3.34a.38.38,0,0,1,.41.39V594c0,.24-.12.35-.37.35h-3.38A.3.3,0,0,1,365.48,594Z"/><path class="cls-2" d="M401.24,566.7a.6.6,0,0,1,.47.28l13.38,20.7V567.09c0-.25.11-.39.35-.39h3.34a.38.38,0,0,1,.41.39v26.85c0,.26-.14.39-.41.39h-3.91a.68.68,0,0,1-.46-.23L401,573.31v20.63c0,.26-.14.39-.41.39h-3.34c-.23,0-.35-.13-.35-.39V567.09a.35.35,0,0,1,.39-.39h4Z"/><path class="cls-2" d="M446.87,594.33c-.24,0-.35-.13-.35-.39V567.09a.35.35,0,0,1,.39-.39h7.77q6.42,0,10.27,3.74t3.85,10c0,4.26-1.28,7.62-3.87,10.11s-6,3.73-10.26,3.73h-7.8Zm3.79-3.85h4.06a10,10,0,1,0,0-20h-4.06Z"/><path class="cls-2" d="M494.59,594V567.09c0-.25.12-.39.35-.39h3.35a.37.37,0,0,1,.4.39V594c0,.24-.11.35-.36.35h-3.39A.31.31,0,0,1,494.59,594Z"/><path class="cls-2" d="M548.85,593.89c.14.29,0,.44-.29.44h-3.35a.48.48,0,0,1-.46-.27l-3-7.56H530.18l-3,7.56c0,.18-.16.27-.39.27h-3.34c-.29,0-.41-.15-.33-.44l10.63-26.8a.51.51,0,0,1,.53-.35h3.46a.48.48,0,0,1,.5.35Zm-8.48-11L536,571.8l-4.44,11.1Z"/><path class="cls-2" d="M623,575a8,8,0,0,1-2.4,6,9,9,0,0,1-6.45,2.24H608.5V594c0,.26-.13.39-.41.39h-3.3a.35.35,0,0,1-.39-.39V567.11a.35.35,0,0,1,.39-.39h9.37a9.06,9.06,0,0,1,6.47,2.22,7.92,7.92,0,0,1,2.4,6Zm-9.16,4.41a5.6,5.6,0,0,0,3.69-1.11,4,4,0,0,0,1.34-3.25,4.06,4.06,0,0,0-1.34-3.34,5.56,5.56,0,0,0-3.65-1.11h-5.37l0,8.81h5.37Z"/><path class="cls-2" d="M670,566.74c.35,0,.45.16.31.47L659.88,594a.52.52,0,0,1-.56.35h-3.83A.48.48,0,0,1,655,594l-10.44-26.77c-.1-.33,0-.49.35-.47h3.62a.48.48,0,0,1,.41.27l8.53,22.34L666,567a.39.39,0,0,1,.41-.27H670Z"/><path class="cls-2" d="M712.64,567.09v3.11c0,.24-.14.35-.39.35h-7.81l0,23.43c0,.24-.13.35-.4.35h-3.35c-.25,0-.39-.11-.39-.35V570.55h-7.81a.3.3,0,0,1-.35-.35v-3.11a.35.35,0,0,1,.39-.39h19.71C712.52,566.7,712.64,566.84,712.64,567.09Z"/><path class="cls-2" d="M768.91,566.7h3.34a.37.37,0,0,1,.41.39v23.55h9.28a.35.35,0,0,1,.39.39v3a.31.31,0,0,1-.35.35H768.91a.31.31,0,0,1-.35-.35V567.09C768.56,566.84,768.68,566.7,768.91,566.7Z"/><path class="cls-2" d="M825.6,567.09v3.11c0,.24-.14.35-.39.35h-7.82l.06,23.43c0,.24-.14.35-.41.35H813.7c-.25,0-.39-.11-.39-.35V570.55h-7.82a.31.31,0,0,1-.35-.35v-3.11a.35.35,0,0,1,.39-.39h19.72C825.48,566.7,825.6,566.84,825.6,567.09Z"/><path class="cls-2" d="M850.79,594.33c-.24,0-.35-.13-.35-.39V567.09a.35.35,0,0,1,.39-.39h7.77q6.42,0,10.27,3.74t3.85,10c0,4.26-1.28,7.62-3.87,10.11s-6,3.73-10.27,3.73h-7.79Zm3.79-3.85h4.06a9.89,9.89,0,0,0,7.29-2.68,11,11,0,0,0,0-14.56,9.91,9.91,0,0,0-7.31-2.73h-4.06Z"/><rect class="cls-2" x="364.06" y="556.48" width="511.09" height="1.59"/></svg>