<svg id="Layer_1" data-name="Layer 1" xmlns="http://www.w3.org/2000/svg" viewBox="0 0 1920 1080"><defs><style>.cls-1{fill:#00b4d8;}</style></defs><path class="cls-1" d="M177.51,385.43c0-1.6.86-2.46,2.58-2.46h55.55q40.56,0,64.89,23.6t24.33,63.54q0,40.36-24.33,63.91t-64.89,23.59H180.09c-1.72,0-2.58-.86-2.58-2.45ZM216.1,520.74h19.66c15.24,0,27.53-4.67,37-13.88s14.14-21.39,14.14-36.5-4.67-27.54-14-36.75-21.76-13.89-37.24-13.89H216Z"/><path class="cls-1" d="M349.3,555.4v-170c0-1.6.74-2.46,2.34-2.46h33.92c1.47,0,2.21.86,2.21,2.46v170a2,2,0,0,1-2.21,2.21H351.88A2.24,2.24,0,0,1,349.3,555.4Z"/><path class="cls-1" d="M574,554.79c.86,1.84.24,2.82-1.72,2.82H538.32a2.46,2.46,0,0,1-2.59-1.72L521.6,518H457l-14.38,37.85a2.72,2.72,0,0,1-2.71,1.72H406.32c-2.21,0-2.82-1-2-2.82l64.15-169.36a3.14,3.14,0,0,1,3.32-2.21h35a3.08,3.08,0,0,1,3.2,2.21Zm-64.65-69.44L489.16,432,469,485.35Z"/><path class="cls-1" d="M629,555.16a2.2,2.2,0,0,1-2.46,2.45H593.11c-1.6,0-2.46-1-2.58-2.82V386.66c0-2.58,1.23-3.81,3.81-3.69h32.94a3.78,3.78,0,0,1,3.32,2l52.11,107.29,50-107.53A3,3,0,0,1,735.8,383h37a2.21,2.21,0,0,1,2.46,2.46V555.16a2.2,2.2,0,0,1-2.46,2.45H739.24a2.2,2.2,0,0,1-2.46-2.45V455.73l-36.5,73.74c-.37,1-1.35,1.6-3.07,2H667.84a3.52,3.52,0,0,1-3.08-1.72L629,457.45Z"/><path class="cls-1" d="M961.42,554.79c.86,1.84.25,2.82-1.72,2.82H925.78a2.46,2.46,0,0,1-2.58-1.72L909.07,518H844.42L830,555.89a2.7,2.7,0,0,1-2.7,1.72H793.79c-2.22,0-2.83-1-2-2.82L856,385.43a3.14,3.14,0,0,1,3.32-2.21h35a3.07,3.07,0,0,1,3.19,2.21Zm-64.64-69.44L876.62,432l-20.16,53.34Z"/><path class="cls-1" d="M1022.12,384.7l66.36,108V385.43c0-1.6.86-2.46,2.58-2.46h33.68c1.47,0,2.21.86,2.33,2.46V555.16c0,1.59-.86,2.45-2.58,2.45h-38a3.45,3.45,0,0,1-2.83-1.47l-67.23-108.77V555.16a2.2,2.2,0,0,1-2.45,2.45H980.58a2.35,2.35,0,0,1-2.58-2.45V385.43c0-1.6.86-2.46,2.58-2.46h38.22A3.78,3.78,0,0,1,1022.12,384.7Z"/><path class="cls-1" d="M1277.73,385.43v32a2.27,2.27,0,0,1-2.33,2.58h-43V555.4c0,1.48-.86,2.21-2.46,2.21h-33.8a2,2,0,0,1-2.21-2.21V420h-43.38c-1.48,0-2.21-.74-2.21-2.34v-32.2a2.21,2.21,0,0,1,2.46-2.46H1275.4C1276.87,383,1277.61,383.83,1277.73,385.43Z"/><path class="cls-1" d="M1391.15,450.44a2.21,2.21,0,0,1,2.46,2.46v31.22c0,1.6-.74,2.46-2.21,2.46h-54v34h68a2.35,2.35,0,0,1,2.58,2.46V555.4c0,1.48-.74,2.21-2.34,2.21H1301.56a2.35,2.35,0,0,1-2.58-2.45V385.43c0-1.6.86-2.46,2.58-2.46H1403.2a2.2,2.2,0,0,1,2.45,2.46v32a2.36,2.36,0,0,1-2.45,2.58h-65.75v30.47Z"/><path class="cls-1" d="M1577.09,533.4c1.1,1.35,1.23,2.58.37,3.69q-24.9,23-62.93,23.1-40,0-64.52-24.94t-24.46-64.89q0-39.83,25.07-64.77t64.89-24.95q36.51,0,61.33,23.47a2.11,2.11,0,0,1,0,3.2l-18.56,26.42a3.07,3.07,0,0,1-1.47.86,2.93,2.93,0,0,1-2.21-.86,59.29,59.29,0,0,0-40.19-15.12c-15.24,0-27.53,4.8-36.75,14.26s-13.76,22-13.76,37.61c0,15.36,4.67,27.77,13.88,37.24s21.51,14.13,36.87,14.13q22.3,0,40.19-15.12a6.07,6.07,0,0,1,2.09-.74,2.11,2.11,0,0,1,1.48,1Z"/><path class="cls-1" d="M1639.26,453.89H1704V385.43a2.2,2.2,0,0,1,2.45-2.46h33.8a2,2,0,0,1,2.21,2.22v170a2.2,2.2,0,0,1-2.45,2.45h-33.56a2.2,2.2,0,0,1-2.45-2.45V486.58h-64.77v68.58c0,1.59-.74,2.45-2.21,2.45h-33.68a2.35,2.35,0,0,1-2.58-2.45V385.43c0-1.6.86-2.46,2.58-2.46h33.68a2,2,0,0,1,2.21,2.22Z"/><path class="cls-1" d="M180.48,698.23V615.75c0-.78.35-1.2,1.07-1.2h10.26a1.15,1.15,0,0,1,1.25,1.2v82.48c0,.72-.36,1.07-1.13,1.07H181.55A.94.94,0,0,1,180.48,698.23Z"/><path class="cls-1" d="M290.19,614.55a1.85,1.85,0,0,1,1.43.84l41,63.52V615.75c0-.78.36-1.2,1.07-1.2H344a1.14,1.14,0,0,1,1.25,1.2v82.36c0,.78-.41,1.19-1.25,1.19H332a2.1,2.1,0,0,1-1.43-.71l-41.15-63.76v63.28c0,.78-.42,1.19-1.25,1.19H277.9c-.72,0-1.07-.41-1.07-1.19V615.75a1.07,1.07,0,0,1,1.19-1.2h12.17Z"/><path class="cls-1" d="M430.13,699.3c-.71,0-1.07-.41-1.07-1.19V615.75a1.07,1.07,0,0,1,1.19-1.2h23.86q19.68,0,31.49,11.45t11.81,30.84q0,19.59-11.87,31T454.05,699.3H430.13Zm11.63-11.81h12.47q14,0,22.37-8.23c5.54-5.48,8.35-12.94,8.35-22.3s-2.81-16.82-8.41-22.37-13.07-8.35-22.43-8.35H441.65Z"/><path class="cls-1" d="M576.52,698.23V615.75c0-.78.36-1.2,1.08-1.2h10.26a1.15,1.15,0,0,1,1.25,1.2v82.48c0,.72-.36,1.07-1.13,1.07H577.6A1,1,0,0,1,576.52,698.23Z"/><path class="cls-1" d="M743,697.93c.42.9.12,1.37-.89,1.37H731.8a1.56,1.56,0,0,1-1.43-.83l-9.12-23.2H685.7l-9.31,23.2c-.06.53-.47.83-1.19.83H664.94c-.89,0-1.25-.47-1-1.37l32.62-82.18a1.52,1.52,0,0,1,1.61-1.08h10.62a1.49,1.49,0,0,1,1.55,1.08Zm-26-33.7-13.42-34.05-13.6,34.05Z"/><path class="cls-1" d="M970.43,640q-.09,11.63-7.34,18.49c-4.83,4.59-11.45,6.86-19.8,6.86H925.93v32.86c0,.78-.41,1.19-1.25,1.19H914.54a1.07,1.07,0,0,1-1.19-1.19V615.8a1.07,1.07,0,0,1,1.19-1.19h28.75q12.62,0,19.86,6.8t7.34,18.43Zm-28.1,13.54c4.84,0,8.59-1.13,11.34-3.4s4.11-5.61,4.11-10c0-4.59-1.37-8-4.11-10.26s-6.5-3.4-11.22-3.4H926l-.12,27h16.46Z"/><path class="cls-1" d="M1114.55,614.67c1.07,0,1.37.48,1,1.43l-32,82.13a1.62,1.62,0,0,1-1.73,1.07h-11.75a1.48,1.48,0,0,1-1.55-1.07l-32-82.13c-.3-1,.06-1.49,1.07-1.43h11.1a1.42,1.42,0,0,1,1.25.84L1076.08,684l26.12-68.52a1.2,1.2,0,0,1,1.26-.84h11.09Z"/><path class="cls-1" d="M1245.37,615.75v9.54c0,.71-.41,1.07-1.19,1.07h-24l.18,71.87c0,.72-.41,1.07-1.25,1.07h-10.26c-.77,0-1.19-.35-1.19-1.07V626.36h-24a1,1,0,0,1-1.07-1.07v-9.54a1.07,1.07,0,0,1,1.19-1.2h60.48C1245,614.55,1245.37,615,1245.37,615.75Z"/><path class="cls-1" d="M1418,614.55h10.25a1.15,1.15,0,0,1,1.26,1.2V688h28.45a1.07,1.07,0,0,1,1.19,1.19v9.07a1,1,0,0,1-1.08,1.07H1418a1,1,0,0,1-1.08-1.07V615.75C1416.9,615,1417.26,614.55,1418,614.55Z"/><path class="cls-1" d="M1591.86,615.75v9.54c0,.71-.42,1.07-1.19,1.07h-24l.18,71.87c0,.72-.42,1.07-1.25,1.07h-10.26c-.78,0-1.19-.35-1.19-1.07V626.36h-24a.94.94,0,0,1-1.07-1.07v-9.54a1.07,1.07,0,0,1,1.19-1.2h60.48C1591.5,614.55,1591.86,615,1591.86,615.75Z"/><path class="cls-1" d="M1669.13,699.3c-.72,0-1.08-.41-1.08-1.19V615.75a1.08,1.08,0,0,1,1.2-1.2h23.85q19.68,0,31.49,11.45t11.81,30.84c0,13.06-3.93,23.38-11.87,31S1706.1,699.3,1693,699.3h-23.91Zm11.63-11.81h12.46q14,0,22.37-8.23c5.54-5.48,8.35-12.94,8.35-22.3s-2.81-16.82-8.41-22.37-13.06-8.35-22.43-8.35h-12.46Z"/><rect class="cls-1" x="176.14" y="583.19" width="1567.72" height="4.89"/></svg>