<svg id="Layer_1" data-name="Layer 1" xmlns="http://www.w3.org/2000/svg" viewBox="0 0 1080 1080"><defs><style>.cls-1{fill:#fff;}</style></defs><polygon class="cls-1" points="567.97 428.73 567.97 428.73 498.7 378.11 471.36 499.15 567.97 428.73"/><path class="cls-1" d="M643.55,348.42q-16.26-28.91-46.44-45.18T526.81,287H420.19V542.87H526.81q40.11,0,70.3-16.81T643.55,480q16.26-29.28,16.26-65.78Q659.81,377.33,643.55,348.42ZM471.36,499.15h0l-6-153.34,33.35,32.3,55.66-4.9-29-42.52,80.36,54.39-51.41-11.87L568,428.73l46.68,17.71Z"/><path class="cls-1" d="M102.88,617.65a1.25,1.25,0,0,1,1.44-1.37h31q22.65,0,36.25,13.18T185.19,665q0,22.54-13.59,35.7t-36.25,13.18h-31a1.25,1.25,0,0,1-1.44-1.37Zm21.55,75.59h11c8.51,0,15.38-2.61,20.66-7.76s7.9-11.94,7.9-20.39-2.61-15.38-7.83-20.52-12.15-7.76-20.8-7.76h-11Z"/><path class="cls-1" d="M198.85,712.6v-95c0-.89.41-1.37,1.3-1.37H219.1c.82,0,1.24.48,1.24,1.37v95a1.1,1.1,0,0,1-1.24,1.24H200.29A1.25,1.25,0,0,1,198.85,712.6Z"/><path class="cls-1" d="M324.34,712.26c.49,1,.14,1.58-1,1.58H304.43a1.39,1.39,0,0,1-1.44-1l-7.89-21.15H259l-8,21.15a1.52,1.52,0,0,1-1.51,1H230.7c-1.24,0-1.58-.55-1.1-1.58l35.84-94.61a1.74,1.74,0,0,1,1.85-1.23h19.57a1.71,1.71,0,0,1,1.78,1.23Zm-36.11-38.79L277,643.67l-11.26,29.8Z"/><path class="cls-1" d="M355.09,712.47a1.23,1.23,0,0,1-1.37,1.37H335.05c-.9,0-1.38-.55-1.45-1.58V618.34c0-1.44.69-2.13,2.13-2.06h18.4a2.1,2.1,0,0,1,1.86,1.1l29.11,59.93L413,617.24a1.67,1.67,0,0,1,1.71-1h20.67a1.23,1.23,0,0,1,1.37,1.37v94.82a1.23,1.23,0,0,1-1.37,1.37H416.68a1.23,1.23,0,0,1-1.38-1.37V656.92l-20.39,41.2c-.2.54-.75.89-1.71,1.09H376.79a2,2,0,0,1-1.72-1l-20-40.37Z"/><path class="cls-1" d="M540.79,712.26c.48,1,.14,1.58-1,1.58h-19a1.39,1.39,0,0,1-1.44-1l-7.89-21.15H475.43l-8,21.15a1.52,1.52,0,0,1-1.51,1H447.15c-1.24,0-1.58-.55-1.1-1.58l35.84-94.61a1.74,1.74,0,0,1,1.85-1.23h19.57a1.71,1.71,0,0,1,1.78,1.23Zm-36.11-38.79-11.26-29.8-11.26,29.8Z"/><path class="cls-1" d="M574.7,617.24l37.07,60.35V617.65c0-.89.48-1.37,1.45-1.37H632c.82,0,1.23.48,1.3,1.37v94.82a1.25,1.25,0,0,1-1.44,1.37H610.68a1.92,1.92,0,0,1-1.58-.83l-37.56-60.76v60.22a1.23,1.23,0,0,1-1.37,1.37H551.49a1.32,1.32,0,0,1-1.44-1.37V617.65a1.25,1.25,0,0,1,1.44-1.37h21.36A2.1,2.1,0,0,1,574.7,617.24Z"/><path class="cls-1" d="M717.49,617.65V635.5a1.26,1.26,0,0,1-1.3,1.44h-24V712.6c0,.83-.48,1.24-1.37,1.24H671.91a1.09,1.09,0,0,1-1.24-1.24V636.94H646.44c-.83,0-1.24-.41-1.24-1.3v-18a1.23,1.23,0,0,1,1.37-1.37h69.62C717,616.28,717.42,616.76,717.49,617.65Z"/><path class="cls-1" d="M780.85,654a1.23,1.23,0,0,1,1.38,1.37v17.44c0,.89-.41,1.38-1.24,1.38H750.85v19h38a1.32,1.32,0,0,1,1.44,1.38V712.6c0,.83-.41,1.24-1.3,1.24H730.81a1.32,1.32,0,0,1-1.45-1.37V617.65c0-.89.48-1.37,1.45-1.37h56.77a1.23,1.23,0,0,1,1.38,1.37V635.5a1.31,1.31,0,0,1-1.38,1.44H750.85v17Z"/><path class="cls-1" d="M884.72,700.31a1.52,1.52,0,0,1,.21,2.06c-9.27,8.58-21,12.91-35.15,12.91q-22.35,0-36-13.94t-13.66-36.25q0-22.25,14-36.18T850.33,615c13.59,0,25,4.4,34.26,13.12a1.18,1.18,0,0,1,0,1.78l-10.37,14.76a1.71,1.71,0,0,1-.83.48,1.61,1.61,0,0,1-1.23-.48,33.11,33.11,0,0,0-22.45-8.44c-8.51,0-15.38,2.68-20.53,8s-7.69,12.29-7.69,21,2.61,15.52,7.76,20.8,12,7.9,20.6,7.9a33.94,33.94,0,0,0,22.45-8.44,3.32,3.32,0,0,1,1.16-.42,1.2,1.2,0,0,1,.83.55Z"/><path class="cls-1" d="M919.45,655.89h36.18V617.65a1.24,1.24,0,0,1,1.38-1.37h18.88a1.09,1.09,0,0,1,1.23,1.24v95a1.23,1.23,0,0,1-1.37,1.37H957a1.24,1.24,0,0,1-1.38-1.37V674.16H919.45v38.31c0,.89-.41,1.37-1.23,1.37H899.41a1.32,1.32,0,0,1-1.45-1.37V617.65c0-.89.48-1.37,1.45-1.37h18.81a1.09,1.09,0,0,1,1.23,1.24Z"/><path class="cls-1" d="M104.53,792.39V746.31c0-.43.2-.66.6-.66h5.74a.63.63,0,0,1,.69.66v46.08c0,.4-.19.6-.63.6h-5.8A.53.53,0,0,1,104.53,792.39Z"/><path class="cls-1" d="M165.82,745.65a1,1,0,0,1,.8.46l22.92,35.49V746.31c0-.43.2-.66.6-.66h5.73a.63.63,0,0,1,.7.66v46c0,.44-.23.67-.7.67h-6.69a1.12,1.12,0,0,1-.8-.4l-23-35.62v35.35c0,.44-.23.67-.7.67H159c-.4,0-.6-.23-.6-.67v-46a.59.59,0,0,1,.67-.66h6.79Z"/><path class="cls-1" d="M244,793c-.4,0-.6-.23-.6-.67v-46a.6.6,0,0,1,.67-.66H257.4q11,0,17.59,6.39c4.4,4.27,6.59,10,6.59,17.23s-2.19,13.06-6.63,17.32-10.29,6.4-17.59,6.4H244Zm6.5-6.6h7q7.85,0,12.5-4.59c3.09-3.07,4.66-7.23,4.66-12.47s-1.57-9.39-4.7-12.49-7.29-4.66-12.52-4.66h-7Z"/><path class="cls-1" d="M325.78,792.39V746.31c0-.43.2-.66.6-.66h5.73a.64.64,0,0,1,.7.66v46.08c0,.4-.2.6-.63.6h-5.8A.53.53,0,0,1,325.78,792.39Z"/><path class="cls-1" d="M418.75,792.22c.24.5.07.77-.5.77h-5.73a.88.88,0,0,1-.8-.47l-5.1-13H386.77l-5.2,13c0,.3-.27.47-.67.47h-5.73c-.5,0-.7-.27-.56-.77l18.22-45.91a.84.84,0,0,1,.9-.6h5.93a.85.85,0,0,1,.87.6ZM404.23,773.4l-7.5-19-7.6,19Z"/><path class="cls-1" d="M545.82,759.84a13.74,13.74,0,0,1-4.09,10.33c-2.7,2.56-6.4,3.83-11.07,3.83H521v18.36c0,.43-.23.66-.7.66h-5.66a.59.59,0,0,1-.67-.66v-46a.6.6,0,0,1,.67-.67h16q7.05,0,11.1,3.8t4.1,10.29Zm-15.69,7.56a9.6,9.6,0,0,0,6.33-1.9,6.81,6.81,0,0,0,2.3-5.56c0-2.57-.77-4.47-2.3-5.73a9.53,9.53,0,0,0-6.26-1.9H521l-.06,15.09h9.19Z"/><path class="cls-1" d="M626.34,745.71c.6,0,.76.27.53.8L609,792.39a.91.91,0,0,1-1,.6h-6.56a.83.83,0,0,1-.86-.6l-17.9-45.88c-.16-.56,0-.83.6-.8h6.2a.8.8,0,0,1,.7.47l14.63,38.28,14.59-38.28a.67.67,0,0,1,.7-.47h6.2Z"/><path class="cls-1" d="M699.42,746.31v5.33c0,.4-.24.6-.67.6H685.36l.1,40.15c0,.4-.24.6-.7.6H679c-.44,0-.67-.2-.67-.6V752.24H665a.53.53,0,0,1-.6-.6v-5.33a.59.59,0,0,1,.66-.66h33.79C699.22,745.65,699.42,745.88,699.42,746.31Z"/><path class="cls-1" d="M795.84,745.65h5.73a.64.64,0,0,1,.7.66v40.35h15.89a.6.6,0,0,1,.67.67v5.06a.53.53,0,0,1-.6.6H795.84a.53.53,0,0,1-.6-.6V746.31C795.24,745.88,795.44,745.65,795.84,745.65Z"/><path class="cls-1" d="M893,746.31v5.33c0,.4-.24.6-.67.6H878.92l.1,40.15c0,.4-.24.6-.7.6h-5.74c-.43,0-.66-.2-.66-.6V752.24h-13.4a.53.53,0,0,1-.59-.6v-5.33a.59.59,0,0,1,.66-.66h33.79C892.78,745.65,893,745.88,893,746.31Z"/><path class="cls-1" d="M936.14,793c-.4,0-.6-.23-.6-.67v-46a.59.59,0,0,1,.66-.66h13.33q11,0,17.59,6.39c4.4,4.27,6.6,10,6.6,17.23s-2.2,13.06-6.63,17.32S956.8,793,949.5,793H936.14Zm6.5-6.6h7q7.85,0,12.49-4.59c3.1-3.07,4.67-7.23,4.67-12.47s-1.57-9.39-4.7-12.49-7.3-4.66-12.53-4.66h-7Z"/><rect class="cls-1" x="102.11" y="728.13" width="875.77" height="2.73"/></svg>